<svg width="43" height="32" viewBox="0 0 43 32" fill="none" xmlns="http://www.w3.org/2000/svg">
          <path d="M35.7172 26.9127H7.02133C4.59498 26.9127 2.60714 24.9248 2.60714 22.4985L1.72284 4.41419C1.72284 1.98785 3.71069 0 6.13703 0H36.5978C39.0242 0 41.012 1.98785 41.012 4.41419L40.1277 22.4985C40.1314 24.9248 38.1435 26.9127 35.7172 26.9127Z" fill="#EFEFEF" fill-opacity="0.9"/>
          <path d="M31.5 28H11.5V25.5238C11.5 23.882 12.1585 22.3074 13.3306 21.1465C14.5027 19.9855 16.0924 19.3333 17.75 19.3333H25.25C26.9076 19.3333 28.4973 19.9855 29.6694 21.1465C30.8415 22.3074 31.5 23.882 31.5 25.5238V28ZM21.5 16.8571C20.5151 16.8571 19.5398 16.665 18.6299 16.2917C17.7199 15.9184 16.8931 15.3712 16.1967 14.6814C15.5003 13.9916 14.9478 13.1726 14.5709 12.2714C14.194 11.3701 14 10.4041 14 9.42857C14 8.45304 14.194 7.48706 14.5709 6.58578C14.9478 5.6845 15.5003 4.86558 16.1967 4.17578C16.8931 3.48597 17.7199 2.93879 18.6299 2.56547C19.5398 2.19215 20.5151 2 21.5 2C23.4891 2 25.3968 2.78265 26.8033 4.17578C28.2098 5.56891 29 7.45839 29 9.42857C29 11.3988 28.2098 13.2882 26.8033 14.6814C25.3968 16.0745 23.4891 16.8571 21.5 16.8571Z" fill="#6C282D"/>
          <path d="M0 27.7451H42.7056V31.8123H0V27.7451Z" fill="#DFDBDC"/>
        </svg>