<svg width="44" height="38" viewBox="0 0 44 38" fill="none" xmlns="http://www.w3.org/2000/svg">
          <path d="M24.2 38L28.6 35.8889L33 38V23.2222H24.2V38ZM33 12.6667V8.44444L28.6 10.5556L24.2 8.44444V12.6667L19.8 14.7778L24.2 16.8889V21.1111L28.6 19L33 21.1111V16.8889L37.4 14.7778L33 12.6667ZM39.6 0H4.4C3.23305 0 2.11389 0.44484 1.28873 1.23666C0.46357 2.02848 0 3.10242 0 4.22222V25.3333C0 26.4531 0.46357 27.5271 1.28873 28.3189C2.11389 29.1107 3.23305 29.5556 4.4 29.5556H19.8V25.3333H4.4V4.22222H39.6V25.3333H37.4V29.5556H39.6C40.767 29.5556 41.8861 29.1107 42.7113 28.3189C43.5364 27.5271 44 26.4531 44 25.3333V4.22222C44 3.10242 43.5364 2.02848 42.7113 1.23666C41.8861 0.44484 40.767 0 39.6 0ZM19.8 10.5556H6.6V6.33333H19.8V10.5556ZM15.4 16.8889H6.6V12.6667H15.4V16.8889ZM19.8 23.2222H6.6V19H19.8V23.2222Z" fill="white" fill-opacity="0.9"/>
        </svg>