<svg width="293" height="261" viewBox="0 0 293 261" fill="none" xmlns="http://www.w3.org/2000/svg">
<g filter="url(#filter0_d)">
<path d="M277.863 223.204L89.0189 250.457C86.2372 250.853 83.3991 250.042 81.1262 248.203C78.8534 246.364 77.3312 243.646 76.8929 240.644L50.7386 59.4101C50.3103 56.4069 51.0019 53.3692 52.6619 50.9623C54.322 48.5554 56.8151 46.9756 59.5953 46.569L141.213 34.7905C145.55 34.1647 149.671 36.4684 151.851 40.2959L151.889 40.3623L164.205 62.3072L252.798 49.5221C255.58 49.1261 258.418 49.9365 260.691 51.7758C262.964 53.6151 264.486 56.3334 264.924 59.3352L286.719 210.363C287.148 213.366 286.456 216.404 284.796 218.811C283.136 221.218 280.643 222.798 277.863 223.204ZM90.3365 234.849L272.186 208.606L251.48 65.1296L157.059 78.7558L141.043 50.2325L65.2719 61.1671L90.3365 234.849Z" fill="#D5A1A1"/>
<path d="M277.863 223.204L89.0189 250.457C86.2372 250.853 83.3991 250.042 81.1262 248.203C78.8534 246.364 77.3312 243.646 76.8929 240.644L50.7386 59.4101C50.3103 56.4069 51.0019 53.3692 52.6619 50.9623C54.322 48.5554 56.8151 46.9756 59.5953 46.569L141.213 34.7905C145.55 34.1647 149.671 36.4684 151.851 40.2959L151.889 40.3623L164.205 62.3072L252.798 49.5221C255.58 49.1261 258.418 49.9365 260.691 51.7758C262.964 53.6151 264.486 56.3334 264.924 59.3352L286.719 210.363C287.148 213.366 286.456 216.404 284.796 218.811C283.136 221.218 280.643 222.798 277.863 223.204ZM90.3365 234.849L272.186 208.606L251.48 65.1296L157.059 78.7558L141.043 50.2325L65.2719 61.1671L90.3365 234.849Z" stroke="white"/>
</g>
<g filter="url(#filter1_d)">
<path d="M231.708 205.511L42.7049 231.635C39.9208 232.014 37.0876 231.187 34.8258 229.334C32.564 227.481 31.0581 224.754 30.6378 221.75L5.56693 40.3629C5.15651 37.3572 5.86624 34.3236 7.54064 31.9267C9.21504 29.5298 11.7176 27.965 14.5002 27.5749L96.1869 16.2844C100.527 15.6845 104.634 18.0128 106.792 21.8532L106.83 21.9199L119.014 43.938L207.682 31.6825C210.466 31.3031 213.299 32.1305 215.561 33.9833C217.823 35.8362 219.329 38.5635 219.749 41.5678L240.641 192.723C241.052 195.729 240.342 198.763 238.668 201.16C236.993 203.556 234.491 205.121 231.708 205.511ZM44.1157 216.036L226.119 190.88L206.271 47.2818L111.769 60.3436L95.9241 31.725L20.0895 42.2067L44.1157 216.036Z" fill="#D5A1A1"/>
</g>
<defs>
<filter id="filter0_d" x="44.5377" y="17.2362" width="248.382" height="243.301" filterUnits="userSpaceOnUse" color-interpolation-filters="sRGB">
<feFlood flood-opacity="0" result="BackgroundImageFix"/>
<feColorMatrix in="SourceAlpha" type="matrix" values="0 0 0 0 0 0 0 0 0 0 0 0 0 0 0 0 0 0 127 0"/>
<feOffset dy="4"/>
<feGaussianBlur stdDeviation="2"/>
<feColorMatrix type="matrix" values="0 0 0 0 0 0 0 0 0 0 0 0 0 0 0 0 0 0 0.25 0"/>
<feBlend mode="normal" in2="BackgroundImageFix" result="effect1_dropShadow"/>
<feBlend mode="normal" in="SourceGraphic" in2="effect1_dropShadow" result="shape"/>
</filter>
<filter id="filter1_d" x="0" y="0" width="246.208" height="241.086" filterUnits="userSpaceOnUse" color-interpolation-filters="sRGB">
<feFlood flood-opacity="0" result="BackgroundImageFix"/>
<feColorMatrix in="SourceAlpha" type="matrix" values="0 0 0 0 0 0 0 0 0 0 0 0 0 0 0 0 0 0 127 0"/>
<feOffset dy="4"/>
<feGaussianBlur stdDeviation="2"/>
<feColorMatrix type="matrix" values="0 0 0 0 0 0 0 0 0 0 0 0 0 0 0 0 0 0 0.25 0"/>
<feBlend mode="normal" in2="BackgroundImageFix" result="effect1_dropShadow"/>
<feBlend mode="normal" in="SourceGraphic" in2="effect1_dropShadow" result="shape"/>
</filter>
</defs>
</svg>
