<svg width="39" height="37" viewBox="0 0 39 37" fill="none" xmlns="http://www.w3.org/2000/svg">
          <path d="M19.5 0C8.72782 0 0 8.28024 0 18.5C0 28.7198 8.72782 37 19.5 37C30.2722 37 39 28.7198 39 18.5C39 8.28024 30.2722 0 19.5 0ZM19.5 7.16129C23.3214 7.16129 26.4194 10.1004 26.4194 13.7258C26.4194 17.3512 23.3214 20.2903 19.5 20.2903C15.6786 20.2903 12.5806 17.3512 12.5806 13.7258C12.5806 10.1004 15.6786 7.16129 19.5 7.16129ZM19.5 32.8226C14.8845 32.8226 10.7486 30.8383 7.98085 27.7351C9.45907 25.0944 12.3526 23.2742 15.7258 23.2742C15.9145 23.2742 16.1032 23.304 16.2841 23.3562C17.3062 23.6696 18.3756 23.871 19.5 23.871C20.6244 23.871 21.7016 23.6696 22.7159 23.3562C22.8968 23.304 23.0855 23.2742 23.2742 23.2742C26.6474 23.2742 29.5409 25.0944 31.0192 27.7351C28.2514 30.8383 24.1155 32.8226 19.5 32.8226Z" fill="white" fill-opacity="0.85"/>
        </svg>