<svg width="60" height="60" viewBox="0 0 60 60" fill="none" xmlns="http://www.w3.org/2000/svg">
<path fill-rule="evenodd" clip-rule="evenodd" d="M21.9526 17.4226C22.1272 17.5967 22.2657 17.8036 22.3602 18.0314C22.4548 18.2592 22.5034 18.5034 22.5034 18.7501C22.5034 18.9967 22.4548 19.2409 22.3602 19.4687C22.2657 19.6965 22.1272 19.9034 21.9526 20.0776L12.0263 30.0001L21.9526 39.9226C22.1269 40.0969 22.2652 40.3038 22.3595 40.5316C22.4539 40.7594 22.5024 41.0035 22.5024 41.2501C22.5024 41.4966 22.4539 41.7407 22.3595 41.9685C22.2652 42.1963 22.1269 42.4032 21.9526 42.5776C21.7782 42.7519 21.5713 42.8902 21.3435 42.9845C21.1157 43.0789 20.8716 43.1274 20.6251 43.1274C20.3785 43.1274 20.1344 43.0789 19.9066 42.9845C19.6788 42.8902 19.4719 42.7519 19.2976 42.5776L8.04756 31.3276C7.87294 31.1534 7.73441 30.9465 7.63988 30.7187C7.54536 30.4909 7.4967 30.2467 7.4967 30.0001C7.4967 29.7534 7.54536 29.5092 7.63988 29.2814C7.73441 29.0536 7.87294 28.8467 8.04756 28.6726L19.2976 17.4226C19.4717 17.2479 19.6786 17.1094 19.9064 17.0149C20.1342 16.9204 20.3784 16.8717 20.6251 16.8717C20.8717 16.8717 21.1159 16.9204 21.3437 17.0149C21.5715 17.1094 21.7784 17.2479 21.9526 17.4226V17.4226Z" fill="white"/>
<path fill-rule="evenodd" clip-rule="evenodd" d="M9.375 30C9.375 29.5027 9.57254 29.0258 9.92418 28.6742C10.2758 28.3225 10.7527 28.125 11.25 28.125H50.625C51.1223 28.125 51.5992 28.3225 51.9508 28.6742C52.3025 29.0258 52.5 29.5027 52.5 30C52.5 30.4973 52.3025 30.9742 51.9508 31.3258C51.5992 31.6775 51.1223 31.875 50.625 31.875H11.25C10.7527 31.875 10.2758 31.6775 9.92418 31.3258C9.57254 30.9742 9.375 30.4973 9.375 30Z" fill="white"/>
</svg>
