<svg width="30" height="30" viewBox="0 0 30 30" fill="none" xmlns="http://www.w3.org/2000/svg">
          <path d="M22.9688 3.16992C26.6602 5.80664 29.0625 10.1191 29.0625 15C29.0625 23.0156 22.5703 29.5137 14.5606 29.5312C6.56251 29.5488 0.0117294 23.0273 1.06943e-05 15.0234C-0.00584868 10.1426 2.3965 5.81836 6.08204 3.17578C6.76759 2.68945 7.72267 2.89453 8.13282 3.62695L9.05861 5.27344C9.40431 5.88867 9.24024 6.66797 8.67189 7.08984C6.24024 8.89453 4.68751 11.7539 4.68751 14.9941C4.68165 20.4023 9.05274 24.8438 14.5313 24.8438C19.8984 24.8438 24.4102 20.4961 24.375 14.9355C24.3574 11.9004 22.9277 8.9707 20.3848 7.08398C19.8164 6.66211 19.6582 5.88281 20.0039 5.27344L20.9297 3.62695C21.3399 2.90039 22.2891 2.68359 22.9688 3.16992ZM16.875 15.4688V1.40625C16.875 0.626953 16.2481 0 15.4688 0H13.5938C12.8145 0 12.1875 0.626953 12.1875 1.40625V15.4688C12.1875 16.248 12.8145 16.875 13.5938 16.875H15.4688C16.2481 16.875 16.875 16.248 16.875 15.4688Z" fill="white" fill-opacity="0.85"/>
        </svg>