<svg width="28" height="27" viewBox="0 0 28 27" fill="none" xmlns="http://www.w3.org/2000/svg">
<path d="M11.6667 20C13.7375 19.9996 15.7486 19.3558 17.3799 18.1713L22.5085 22.9336L24.1582 21.4018L19.0295 16.6395C20.3059 15.1246 20.9995 13.2567 21 11.3333C21 6.55471 16.8129 2.66663 11.6667 2.66663C6.52054 2.66663 2.33337 6.55471 2.33337 11.3333C2.33337 16.1119 6.52054 20 11.6667 20ZM11.6667 4.83329C15.5272 4.83329 18.6667 7.74854 18.6667 11.3333C18.6667 14.918 15.5272 17.8333 11.6667 17.8333C7.80621 17.8333 4.66671 14.918 4.66671 11.3333C4.66671 7.74854 7.80621 4.83329 11.6667 4.83329Z" fill="#666565"/>
<path d="M13.314 9.80147C13.7561 10.2131 14 10.757 14 11.3333H16.3333C16.3343 10.7639 16.2138 10.2 15.9787 9.67416C15.7436 9.1483 15.3986 8.67093 14.9636 8.26964C13.1973 6.63164 10.1348 6.63164 8.36963 8.26964L10.017 9.80364C10.9036 8.98247 12.432 8.98464 13.314 9.80147Z" fill="#666565"/>
</svg>
