<svg width="30" height="25" viewBox="0 0 30 25" fill="none" xmlns="http://www.w3.org/2000/svg">
              <path d="M27.9016 10.2378H1.49367C0.354828 10.2378 0.255798 11.3339 0.255798 12.69C0.255798 14.0461 0.354828 15.1423 1.49367 15.1423H27.9016C29.0405 15.1423 29.1395 14.0461 29.1395 12.69C29.1395 11.3339 29.0405 10.2378 27.9016 10.2378ZM27.9016 20.0467H1.49367C0.354828 20.0467 0.255798 21.1429 0.255798 22.499C0.255798 23.8551 0.354828 24.9512 1.49367 24.9512H27.9016C29.0405 24.9512 29.1395 23.8551 29.1395 22.499C29.1395 21.1429 29.0405 20.0467 27.9016 20.0467ZM1.49367 5.33331H27.9016C29.0405 5.33331 29.1395 4.23716 29.1395 2.88107C29.1395 1.52498 29.0405 0.428833 27.9016 0.428833H1.49367C0.354828 0.428833 0.255798 1.52498 0.255798 2.88107C0.255798 4.23716 0.354828 5.33331 1.49367 5.33331Z" fill="white"/>
            </svg>